<svg width="24" height="24" viewBox="0 0 24 24" fill="none" xmlns="http://www.w3.org/2000/svg">
<path fill-rule="evenodd" clip-rule="evenodd" d="M2.25 5C2.25 4.80109 2.32902 4.61032 2.46967 4.46967C2.61032 4.32902 2.80109 4.25 3 4.25H21C21.1989 4.25 21.3897 4.32902 21.5303 4.46967C21.671 4.61032 21.75 4.80109 21.75 5C21.75 5.19891 21.671 5.38968 21.5303 5.53033C21.3897 5.67098 21.1989 5.75 21 5.75H3C2.80109 5.75 2.61032 5.67098 2.46967 5.53033C2.32902 5.38968 2.25 5.19891 2.25 5ZM2.25 9C2.25 8.80109 2.32902 8.61032 2.46967 8.46967C2.61032 8.32902 2.80109 8.25 3 8.25H21C21.1989 8.25 21.3897 8.32902 21.5303 8.46967C21.671 8.61032 21.75 8.80109 21.75 9C21.75 9.19891 21.671 9.38968 21.5303 9.53033C21.3897 9.67098 21.1989 9.75 21 9.75H3C2.80109 9.75 2.61032 9.67098 2.46967 9.53033C2.32902 9.38968 2.25 9.19891 2.25 9ZM2.25 13C2.25 12.8011 2.32902 12.6103 2.46967 12.4697C2.61032 12.329 2.80109 12.25 3 12.25H11C11.1989 12.25 11.3897 12.329 11.5303 12.4697C11.671 12.6103 11.75 12.8011 11.75 13C11.75 13.1989 11.671 13.3897 11.5303 13.5303C11.3897 13.671 11.1989 13.75 11 13.75H3C2.80109 13.75 2.61032 13.671 2.46967 13.5303C2.32902 13.3897 2.25 13.1989 2.25 13ZM17.5 12.25C17.6989 12.25 17.8897 12.329 18.0303 12.4697C18.171 12.6103 18.25 12.8011 18.25 13V17.19L19.47 15.97C19.5387 15.8963 19.6215 15.8372 19.7135 15.7962C19.8055 15.7552 19.9048 15.7332 20.0055 15.7314C20.1062 15.7296 20.2062 15.7482 20.2996 15.7859C20.393 15.8236 20.4778 15.8797 20.549 15.951C20.6203 16.0222 20.6764 16.107 20.7141 16.2004C20.7518 16.2938 20.7704 16.3938 20.7686 16.4945C20.7668 16.5952 20.7448 16.6945 20.7038 16.7865C20.6628 16.8785 20.6037 16.9613 20.53 17.03L18.03 19.53C17.8894 19.6705 17.6988 19.7493 17.5 19.7493C17.3012 19.7493 17.1106 19.6705 16.97 19.53L14.47 17.03C14.3963 16.9613 14.3372 16.8785 14.2962 16.7865C14.2552 16.6945 14.2332 16.5952 14.2314 16.4945C14.2296 16.3938 14.2482 16.2938 14.2859 16.2004C14.3236 16.107 14.3797 16.0222 14.451 15.951C14.5222 15.8797 14.607 15.8236 14.7004 15.7859C14.7938 15.7482 14.8938 15.7296 14.9945 15.7314C15.0952 15.7332 15.1945 15.7552 15.2865 15.7962C15.3785 15.8372 15.4613 15.8963 15.53 15.97L16.75 17.19V13C16.75 12.8011 16.829 12.6103 16.9697 12.4697C17.1103 12.329 17.3011 12.25 17.5 12.25ZM2.25 17C2.25 16.8011 2.32902 16.6103 2.46967 16.4697C2.61032 16.329 2.80109 16.25 3 16.25H11C11.1989 16.25 11.3897 16.329 11.5303 16.4697C11.671 16.6103 11.75 16.8011 11.75 17C11.75 17.1989 11.671 17.3897 11.5303 17.5303C11.3897 17.671 11.1989 17.75 11 17.75H3C2.80109 17.75 2.61032 17.671 2.46967 17.5303C2.32902 17.3897 2.25 17.1989 2.25 17Z" fill="black"/>
</svg>
