<svg width="20" height="20" viewBox="0 0 20 20" fill="none" xmlns="http://www.w3.org/2000/svg">
<path d="M5 3.77501C4.08333 4.50834 3.35433 5.41267 2.813 6.48801C2.27167 7.56334 2.00067 8.73401 2 10C2 11.9167 2.58333 13.5877 3.75 15.013C4.91667 16.4383 6.39167 17.359 8.175 17.775C8.425 17.8417 8.625 17.9877 8.775 18.213C8.925 18.4383 9 18.684 9 18.95C9 19.2167 8.90833 19.4417 8.725 19.625C8.54167 19.8083 8.33333 19.875 8.1 19.825C5.76667 19.3917 3.83333 18.2627 2.3 16.438C0.766667 14.6133 0 12.4673 0 10C0 8.48334 0.304333 7.08334 0.913 5.80001C1.52167 4.51667 2.35067 3.41667 3.4 2.50001H2C1.71667 2.50001 1.47933 2.40401 1.288 2.21201C1.09667 2.02001 1.00067 1.78267 1 1.50001C1 1.21667 1.096 0.97934 1.288 0.788007C1.48 0.596674 1.71733 0.500674 2 0.500007H6C6.28333 0.500007 6.521 0.596007 6.713 0.788007C6.905 0.980007 7.00067 1.21734 7 1.50001V5.50001C7 5.78334 6.904 6.02101 6.712 6.21301C6.52 6.40501 6.28267 6.50067 6 6.50001C5.71667 6.50001 5.47933 6.40401 5.288 6.21201C5.09667 6.02001 5.00067 5.78267 5 5.50001V3.77501ZM8.575 11.775L13.55 6.80001C13.75 6.60001 13.9833 6.50401 14.25 6.51201C14.5167 6.52001 14.75 6.62434 14.95 6.82501C15.1333 7.02501 15.2293 7.25834 15.238 7.52501C15.2467 7.79167 15.1507 8.02501 14.95 8.22501L9.275 13.9C9.075 14.1 8.84167 14.2 8.575 14.2C8.30833 14.2 8.075 14.1 7.875 13.9L5.05 11.05C4.86667 10.8667 4.771 10.6377 4.763 10.363C4.755 10.0883 4.85067 9.85067 5.05 9.65001C5.23333 9.46667 5.46667 9.37501 5.75 9.37501C6.03333 9.37501 6.26667 9.46667 6.45 9.65001L8.575 11.775ZM16.6 17.5H18C18.2833 17.5 18.521 17.596 18.713 17.788C18.905 17.98 19.0007 18.2173 19 18.5C19 18.7833 18.904 19.021 18.712 19.213C18.52 19.405 18.2827 19.5007 18 19.5H14C13.7167 19.5 13.4793 19.404 13.288 19.212C13.0967 19.02 13.0007 18.7827 13 18.5V14.5C13 14.2167 13.096 13.9793 13.288 13.788C13.48 13.5967 13.7173 13.5007 14 13.5C14.2833 13.5 14.521 13.596 14.713 13.788C14.905 13.98 15.0007 14.2173 15 14.5V16.225C15.9167 15.475 16.646 14.5667 17.188 13.5C17.73 12.4333 18.0007 11.2667 18 10C18 8.08334 17.4167 6.41267 16.25 4.98801C15.0833 3.56334 13.6083 2.64234 11.825 2.22501C11.575 2.15834 11.375 2.01267 11.225 1.78801C11.075 1.56334 11 1.31734 11 1.05001C11 0.78334 11.0917 0.55834 11.275 0.375007C11.4583 0.191674 11.6667 0.125007 11.9 0.175007C14.2333 0.60834 16.1667 1.73767 17.7 3.56301C19.2333 5.38834 20 7.53401 20 10C20 11.5167 19.6957 12.9167 19.087 14.2C18.4783 15.4833 17.6493 16.5833 16.6 17.5Z" fill="black"/>
</svg>
