<svg width="1024" height="1024" viewBox="0 0 1024 1024" fill="none" xmlns="http://www.w3.org/2000/svg">
<path d="M834.1 469.2C814.686 425.506 786.465 386.288 751.2 354L722.1 327.3C721.112 326.418 719.923 325.793 718.636 325.478C717.35 325.163 716.006 325.169 714.723 325.495C713.439 325.821 712.255 326.456 711.275 327.347C710.295 328.237 709.548 329.354 709.1 330.6L696.1 367.9C688 391.3 673.1 415.2 652 438.7C650.6 440.2 649 440.6 647.9 440.7C646.8 440.8 645.1 440.6 643.6 439.2C642.2 438 641.5 436.2 641.6 434.4C645.3 374.2 627.3 306.3 587.9 232.4C555.3 171 510 123.1 453.4 89.7001L412.1 65.4001C406.7 62.2001 399.8 66.4001 400.1 72.7001L402.3 120.7C403.8 153.5 400 182.5 391 206.6C380 236.1 364.2 263.5 344 288.1C329.942 305.196 314.009 320.66 296.5 334.2C254.331 366.617 220.041 408.153 196.2 455.7C172.417 503.661 160.029 556.466 160 610C160 657.2 169.3 702.9 187.7 746C205.467 787.497 231.106 825.158 263.2 856.9C295.6 888.9 333.2 914.1 375.1 931.6C418.5 949.8 464.5 959 512 959C559.5 959 605.5 949.8 648.9 931.7C690.697 914.303 728.705 888.93 760.8 857C793.2 825 818.6 787.6 836.3 746.1C854.672 703.118 864.097 656.844 864 610.1C864 561.3 854 513.9 834.1 469.2Z" fill="black"/>
</svg>
