<svg width="19" height="24" viewBox="0 0 19 24" fill="none" xmlns="http://www.w3.org/2000/svg">
<path d="M17.9849 10.8613C17.4669 9.68919 16.714 8.63718 15.7731 7.77108L14.9967 7.05486C14.9704 7.0312 14.9386 7.01442 14.9043 7.00598C14.87 6.99753 14.8341 6.99769 14.7999 7.00643C14.7657 7.01517 14.7341 7.03222 14.7079 7.0561C14.6818 7.07998 14.6618 7.10995 14.6499 7.14338L14.303 8.14394C14.0869 8.77164 13.6894 9.41275 13.1265 10.0431C13.0891 10.0834 13.0464 10.0941 13.0171 10.0968C12.9877 10.0995 12.9424 10.0941 12.9024 10.0565C12.865 10.0243 12.8463 9.97606 12.849 9.92778C12.9477 8.31293 12.4675 6.49154 11.4163 4.50919C10.5465 2.86216 9.33793 1.57726 7.82786 0.681315L6.72598 0.0294753C6.58191 -0.0563636 6.39782 0.0562999 6.40582 0.225295L6.46452 1.51288C6.50454 2.39273 6.40316 3.17064 6.16304 3.81712C5.86956 4.60845 5.44802 5.34344 4.90909 6.00333C4.53403 6.46193 4.10893 6.87674 3.64179 7.23995C2.51672 8.10951 1.60189 9.22372 0.965809 10.4991C0.331294 11.7857 0.000774144 13.2022 0 14.6382C0 15.9043 0.248122 17.1302 0.739031 18.2863C1.21304 19.3995 1.89709 20.4097 2.75336 21.2612C3.61778 22.1196 4.62094 22.7956 5.73883 23.265C6.89673 23.7532 8.124 24 9.39129 24C10.6586 24 11.8859 23.7532 13.0438 23.2677C14.1589 22.801 15.1729 22.1204 16.0292 21.2639C16.8937 20.4055 17.5713 19.4023 18.0436 18.289C18.5337 17.136 18.7852 15.8948 18.7826 14.6409C18.7826 13.3318 18.5158 12.0603 17.9849 10.8613ZM14.7539 19.9629C13.3212 21.39 11.419 22.1732 9.39129 22.1732C7.36363 22.1732 5.46136 21.39 4.02865 19.9629C2.60128 18.5385 1.81423 16.65 1.81423 14.6409C1.81423 13.474 2.07569 12.3554 2.59061 11.3146C3.09219 10.298 3.83923 9.3886 4.74634 8.68848C5.32486 8.24371 5.84958 7.73234 6.30978 7.16484C6.97677 6.34668 7.4997 5.43465 7.86254 4.45555C8.01138 4.05167 8.11953 3.63379 8.18537 3.2082C8.82835 3.80371 9.36728 4.52261 9.81817 5.3649C10.7093 7.04413 11.1201 8.53826 11.0401 9.80975C11.021 10.1092 11.0696 10.4091 11.1824 10.687C11.2951 10.9648 11.4691 11.2133 11.6911 11.4139C11.8835 11.5886 12.1085 11.7232 12.3531 11.8098C12.5977 11.8963 12.8569 11.9332 13.1158 11.9182C13.6414 11.8913 14.1243 11.658 14.4765 11.2636C14.8313 10.864 15.1381 10.4562 15.3943 10.0404C15.7678 10.5206 16.0799 11.0437 16.328 11.607C16.7523 12.5673 16.9684 13.5893 16.9684 14.6409C16.9684 16.65 16.1813 18.5412 14.7539 19.9629Z" fill="#2C3055"/>
</svg>
