<svg width="598" height="598" viewBox="0 0 598 598" fill="none" xmlns="http://www.w3.org/2000/svg">
<path d="M512.037 91.5687C512.037 85.9625 510.169 82.225 506.431 78.4875C502.694 74.75 498.956 72.8812 493.35 72.8812C487.744 72.8812 484.006 74.75 480.269 78.4875L429.812 128.944C392.438 110.256 349.456 99.0437 299 93.4375C205.562 102.781 130.812 136.419 78.4875 196.219C26.1625 256.019 0 289.656 0 299C0 308.344 28.0312 341.981 78.4875 401.781C91.5687 416.731 104.65 429.812 121.469 441.025L71.0125 493.35C67.275 497.087 65.4062 500.825 65.4062 506.431C65.4062 512.037 67.275 515.775 71.0125 519.512C74.75 523.25 78.4875 525.119 84.0938 525.119C89.7 525.119 93.4375 523.25 97.175 519.512L508.3 104.65C510.169 100.912 512.037 97.175 512.037 91.5687ZM134.55 399.912C89.7 358.8 59.8 325.162 44.85 299C61.6688 270.969 91.5687 237.331 134.55 198.087C177.531 158.844 233.594 134.55 299 130.812C336.375 132.681 371.881 142.025 401.781 156.975L370.012 188.744C349.456 175.662 327.031 168.187 299 168.187C261.625 168.187 231.725 181.269 205.562 205.562C179.4 229.856 168.188 261.625 168.188 299C168.188 327.031 175.663 351.325 188.744 371.881L149.5 412.994C143.894 409.256 138.287 403.65 134.55 399.912ZM216.775 343.85C209.3 330.769 205.562 315.819 205.562 299C205.562 272.837 214.906 250.412 233.594 233.594C252.281 216.775 272.838 205.562 299 205.562C315.819 205.562 330.769 209.3 341.981 216.775L216.775 343.85ZM519.512 196.219C512.037 186.875 502.693 179.4 495.218 171.925L467.187 199.956C510.168 239.2 540.068 272.837 555.018 299C538.199 327.031 508.299 360.669 465.318 399.912C422.337 439.156 364.406 463.45 298.999 467.187C269.099 465.319 241.068 459.712 216.774 450.369L188.743 478.4C222.381 491.481 257.887 500.825 298.999 504.562C392.437 495.219 467.187 461.581 519.512 401.781C571.837 341.981 598 308.344 598 299C598 289.656 569.968 256.019 519.512 196.219Z" fill="black"/>
<path d="M298.999 392.437C291.524 392.437 284.049 390.569 276.574 388.7L246.674 418.6C263.493 426.075 280.311 429.812 298.999 429.812C336.374 429.812 366.274 416.731 392.436 392.437C416.73 368.144 429.811 336.375 429.811 299C429.811 280.312 426.074 261.625 418.599 246.675L388.699 276.575C390.568 284.05 392.436 291.525 392.436 299C392.436 325.162 383.093 347.587 364.405 364.406C345.718 381.225 325.161 392.437 298.999 392.437Z" fill="black"/>
</svg>
