<svg width="24" height="24" viewBox="0 0 24 24" fill="none" xmlns="http://www.w3.org/2000/svg">
<path d="M16.652 3.455L17.301 2.806C17.8174 2.28975 18.5177 1.99978 19.2479 1.99988C19.978 1.99997 20.6783 2.29012 21.1945 2.8065C21.7107 3.32287 22.0007 4.02318 22.0006 4.75335C22.0005 5.48352 21.7104 6.18375 21.194 6.7L20.544 7.349C20.544 7.349 19.166 7.268 17.95 6.051C16.733 4.835 16.652 3.456 16.652 3.456L10.687 9.42C10.283 9.824 10.081 10.026 9.907 10.249C9.702 10.511 9.527 10.796 9.383 11.097C9.262 11.352 9.172 11.623 8.991 12.165L8.412 13.9M8.412 13.9L8.038 15.022C7.99402 15.1529 7.98741 15.2934 8.01892 15.4278C8.05043 15.5622 8.11881 15.6851 8.21638 15.7828C8.31394 15.8805 8.43682 15.949 8.57119 15.9806C8.70556 16.0123 8.8461 16.0058 8.977 15.962L10.1 15.588M8.412 13.9L10.1 15.588M20.545 7.348L14.58 13.313C14.176 13.717 13.974 13.919 13.751 14.093C13.4882 14.2979 13.2039 14.4736 12.903 14.617C12.648 14.738 12.377 14.828 11.835 15.009L10.1 15.588" stroke="black" stroke-width="1.5"/>
<path d="M22 12C22 17.523 17.523 22 12 22C6.477 22 2 17.523 2 12C2 6.477 6.477 2 12 2" stroke="black" stroke-width="1.5" stroke-linecap="round"/>
</svg>
