<svg width="22" height="20" viewBox="0 0 22 20" fill="none" xmlns="http://www.w3.org/2000/svg">
<path d="M1.20929 2H3.34882" stroke="#2C3055" stroke-width="2" stroke-linecap="round" stroke-linejoin="round"/>
<path d="M5.48837 6H7.62791" stroke="#2C3055" stroke-width="2" stroke-linecap="round" stroke-linejoin="round"/>
<path d="M6.55814 1V3" stroke="#2C3055" stroke-width="2" stroke-linecap="round" stroke-linejoin="round"/>
<path d="M2.27905 5V7" stroke="#2C3055" stroke-width="2" stroke-linecap="round" stroke-linejoin="round"/>
<path d="M9.76743 2H11.907" stroke="#2C3055" stroke-width="2" stroke-linecap="round" stroke-linejoin="round"/>
<path d="M14.0465 6H16.186" stroke="#2C3055" stroke-width="2" stroke-linecap="round" stroke-linejoin="round"/>
<path d="M15.1163 1V3" stroke="#2C3055" stroke-width="2" stroke-linecap="round" stroke-linejoin="round"/>
<path d="M10.8372 5V7" stroke="#2C3055" stroke-width="2" stroke-linecap="round" stroke-linejoin="round"/>
<path d="M18.3256 2H20.4651" stroke="#2C3055" stroke-width="2" stroke-linecap="round" stroke-linejoin="round"/>
<path d="M19.3953 5V7" stroke="#2C3055" stroke-width="2" stroke-linecap="round" stroke-linejoin="round"/>
<path d="M1.20929 10H3.34882" stroke="#2C3055" stroke-width="2" stroke-linecap="round" stroke-linejoin="round"/>
<path d="M5.48837 14H7.62791" stroke="#2C3055" stroke-width="2" stroke-linecap="round" stroke-linejoin="round"/>
<path d="M6.55814 9V11" stroke="#2C3055" stroke-width="2" stroke-linecap="round" stroke-linejoin="round"/>
<path d="M2.27905 13V15" stroke="#2C3055" stroke-width="2" stroke-linecap="round" stroke-linejoin="round"/>
<path d="M9.76743 10H11.907" stroke="#2C3055" stroke-width="2" stroke-linecap="round" stroke-linejoin="round"/>
<path d="M14.0465 14H16.186" stroke="#2C3055" stroke-width="2" stroke-linecap="round" stroke-linejoin="round"/>
<path d="M15.1163 9V11" stroke="#2C3055" stroke-width="2" stroke-linecap="round" stroke-linejoin="round"/>
<path d="M10.8372 13V15" stroke="#2C3055" stroke-width="2" stroke-linecap="round" stroke-linejoin="round"/>
<path d="M18.3256 10H20.4651" stroke="#2C3055" stroke-width="2" stroke-linecap="round" stroke-linejoin="round"/>
<path d="M19.3953 13V15" stroke="#2C3055" stroke-width="2" stroke-linecap="round" stroke-linejoin="round"/>
<path d="M1.20929 18H3.34882" stroke="#2C3055" stroke-width="2" stroke-linecap="round" stroke-linejoin="round"/>
<path d="M6.55814 17V19" stroke="#2C3055" stroke-width="2" stroke-linecap="round" stroke-linejoin="round"/>
<path d="M9.76743 18H11.907" stroke="#2C3055" stroke-width="2" stroke-linecap="round" stroke-linejoin="round"/>
<path d="M15.1163 17V19" stroke="#2C3055" stroke-width="2" stroke-linecap="round" stroke-linejoin="round"/>
<path d="M18.3256 18H20.4651" stroke="#2C3055" stroke-width="2" stroke-linecap="round" stroke-linejoin="round"/>
</svg>
